<?xml version="1.0" encoding="UTF-8"?>
<svg version="1.1" xmlns="http://www.w3.org/2000/svg" width="417" height="72">
<path d="M0 0 C4.62 0 9.24 0 14 0 C19 5 19 5 19 9 C19.66 9 20.32 9 21 9 C21.474375 9.9075 21.94875 10.815 22.4375 11.75 C27.94661371 21.66670016 27.94661371 21.66670016 36 29 C36.95683307 30.62661622 37.91154752 32.25552753 38.8046875 33.91796875 C40.39923647 36.69540208 42.22351061 39.33526591 44 42 C44.33 28.14 44.66 14.28 45 0 C49.29 0 53.58 0 58 0 C59.39226892 2.78453783 59.1272341 5.06259336 59.12939453 8.17797852 C59.13254669 9.47594864 59.13569885 10.77391876 59.13894653 12.11122131 C59.13715689 13.5337833 59.13510597 14.95634498 59.1328125 16.37890625 C59.13348578 17.83096839 59.13445601 19.28303041 59.13571167 20.73509216 C59.13718704 23.77905347 59.13503893 26.82298546 59.13037109 29.86694336 C59.12466882 33.7768693 59.12795696 37.68672669 59.13394356 41.59665012 C59.13754919 44.5948285 59.13641067 47.5929905 59.13381577 50.59116936 C59.13314676 52.03333481 59.13397399 53.47550174 59.13629532 54.91766548 C59.13882238 56.92891539 59.13429079 58.94017048 59.12939453 60.95141602 C59.12859894 62.09788101 59.12780334 63.24434601 59.12698364 64.42555237 C59 67 59 67 58 68 C53.85050719 68.75266825 50.12736986 68.92008119 46 68 C42.83849344 65.09582537 40.80662806 61.88043351 39 58 C39 57.34 39 56.68 39 56 C38.34 56 37.68 56 37 56 C36.505 54.02 36.505 54.02 36 52 C35.34 52 34.68 52 34 52 C32.5954595 50.17772978 31.27832708 48.28792516 30 46.375 C25.13731465 39.13460453 20.08161813 32.11426538 15 25 C14.67 39.19 14.34 53.38 14 68 C9.38 68 4.76 68 0 68 C0 45.56 0 23.12 0 0 Z " fill="#FB8220" transform="translate(218,2)"/>
<path d="M0 0 C37.40681818 0 37.40681818 0 43.05859375 4.71875 C43.74115234 5.60046875 43.74115234 5.60046875 44.4375 6.5 C44.91058594 7.0878125 45.38367187 7.675625 45.87109375 8.28125 C48.64825948 12.5094608 48.45816831 17.1350856 48 22 C46.30239493 26.73542467 44.091918 29.12459816 40 32 C40.928125 32.721875 41.85625 33.44375 42.8125 34.1875 C46.64052796 37.16485508 48.75884362 40.26410854 49.43359375 45.12109375 C49.4464434 56.03044561 49.4464434 56.03044561 45 61 C44.34 61.99 43.68 62.98 43 64 C29.30472426 70.84763787 15.73379786 68 0 68 C0 45.56 0 23.12 0 0 Z M15 10 C13.55611429 11.21428988 13.55611429 11.21428988 13.90234375 14.81640625 C13.90901911 16.39846682 13.92098125 17.98051159 13.9375 19.5625 C13.94201172 20.36880859 13.94652344 21.17511719 13.95117188 22.00585938 C13.96299482 24.00393756 13.98093086 26.00197783 14 28 C16.22808159 28.10853983 18.45769932 28.18583307 20.6875 28.25 C21.92886719 28.29640625 23.17023437 28.3428125 24.44921875 28.390625 C28.5696687 27.93733018 30.10787892 26.89748679 33 24 C34.54586876 20.90826248 34.29359521 18.40570448 34 15 C32.8213337 12.40087749 32.8213337 12.40087749 30 11 C25.01142796 10.10675038 20.05736627 10 15 10 Z M14 39 C14 44.61 14 50.22 14 56 C16.3925 56.04125 18.785 56.0825 21.25 56.125 C21.99668945 56.14320801 22.74337891 56.16141602 23.51269531 56.18017578 C27.19778057 56.21090134 29.88201812 56.04115309 33 54 C33 53.34 33 52.68 33 52 C33.66 52 34.32 52 35 52 C35.103125 50.783125 35.20625 49.56625 35.3125 48.3125 C35.37050781 47.62800781 35.42851563 46.94351563 35.48828125 46.23828125 C34.69205776 42.58839279 32.94508931 41.20881698 30 39 C27.18823289 38.41782163 24.54284059 38.52293125 21.6875 38.6875 C17.8821875 38.8421875 17.8821875 38.8421875 14 39 Z " fill="#1B4A6A" transform="translate(2,2)"/>
<path d="M0 0 C4.62 0 9.24 0 14 0 C14.33 10.89 14.66 21.78 15 33 C21.67663801 26.51790298 21.67663801 26.51790298 27.60546875 19.3984375 C30.17358642 16.82613041 30.57838886 16.6234902 33.98828125 16.4140625 C35.43086011 16.45358521 36.87287302 16.52465067 38.3125 16.625 C39.05306641 16.65207031 39.79363281 16.67914062 40.55664062 16.70703125 C42.37235998 16.77731716 44.18656801 16.88492911 46 17 C44.4585799 20.56917061 42.30524541 23.08217769 39.6875 25.9375 C38.88441406 26.8140625 38.08132812 27.690625 37.25390625 28.59375 C34.88519561 31.12256413 32.48602635 33.58709207 30 36 C29.401875 36.598125 28.80375 37.19625 28.1875 37.8125 C27.795625 38.204375 27.40375 38.59625 27 39 C28.35663666 43.00631763 30.10096152 45.50297903 33 48.5625 C36.6142106 52.47054886 40.13636992 56.42746516 43.5625 60.5 C44.40941406 61.5003125 45.25632813 62.500625 46.12890625 63.53125 C48 66 48 66 48 68 C32.61044615 69.06895468 32.61044615 69.06895468 28.7578125 66.51171875 C27.08439448 64.1204143 26 61.9626948 26 59 C25.34 59 24.68 59 24 59 C22.34375 57.1015625 22.34375 57.1015625 20.5 54.625 C18.73633557 52.27095638 17.0808095 50.0808095 15 48 C14.67 54.6 14.34 61.2 14 68 C9.38 68 4.76 68 0 68 C0 45.56 0 23.12 0 0 Z " fill="#285371" transform="translate(168,2)"/>
<path d="M0 0 C5.93253718 4.80426324 8.49049784 8.90183049 9.44921875 16.61328125 C9.52785156 17.83402344 9.60648437 19.05476563 9.6875 20.3125 C9.77386719 21.54613281 9.86023438 22.77976562 9.94921875 24.05078125 C9.96597656 25.02402344 9.98273438 25.99726562 10 27 C9 28 9 28 5.94897461 28.11352539 C4.60008729 28.11336634 3.25119386 28.10767612 1.90234375 28.09765625 C0.83905602 28.09553383 0.83905602 28.09553383 -0.24571228 28.09336853 C-2.51801712 28.08775443 -4.79022475 28.07519963 -7.0625 28.0625 C-8.59960796 28.05748681 -10.13671745 28.05292359 -11.67382812 28.04882812 C-15.44925642 28.03778042 -19.22461171 28.02050641 -23 28 C-21.54668245 31.90135023 -20.20975254 34.2765736 -17 37 C-8.8229859 39.72567137 -0.97180629 37.45286347 7 35 C7 38.63 7 42.26 7 46 C0.82711172 49.30177745 -3.96346437 50.14963879 -10.9375 50.1875 C-12.12214844 50.20167969 -13.30679687 50.21585938 -14.52734375 50.23046875 C-21.73923939 49.75183901 -26.64247778 46.68601778 -32.1875 42.25 C-37.59159286 35.54147094 -38.3850054 26.99293526 -37.5 18.6875 C-36.22269489 11.24655478 -33.14389328 5.24604974 -27.125 0.53125 C-18.9845755 -4.38107513 -8.20137787 -4.88928296 0 0 Z M-19.875 10.1875 C-22.39709066 13.10196207 -22.39709066 13.10196207 -23 18 C-16.4 18 -9.8 18 -3 18 C-4.56280693 12.48978945 -4.56280693 12.48978945 -8 9 C-12.40050262 6.79974869 -16.04131728 7.27056749 -19.875 10.1875 Z " fill="#F98323" transform="translate(321,21)"/>
<path d="M0 0 C6.126097 5.22452046 9.49361348 11.06906128 10.3125 19.04296875 C10.62265771 27.31061034 9.75254644 34.60819232 4.234375 41.06640625 C-1.90443526 46.85477261 -7.61636247 49.1116948 -16 49.375 C-24.33186412 49.12347203 -29.5223304 46.8654557 -35.75 41.40234375 C-37 40 -37 40 -37 38 C-37.66 37.67 -38.32 37.34 -39 37 C-42.45982341 30.04274639 -43.19413419 20.35223878 -40.859375 12.90625 C-37.63739307 5.75930826 -33.33017658 -0.23258099 -25.9375 -3.25 C-17.07979237 -5.36814748 -7.83717769 -4.82705062 0 0 Z M-25 11 C-28.28656972 16.4776162 -28.78164561 21.68430349 -28 28 C-26.60292701 31.65900069 -25.09592259 34.54906128 -22 37 C-17.12024575 38.62658475 -13.45615322 38.67207072 -8.75 36.5 C-5.23584525 33.30531386 -3.82192138 30.66021441 -3 26 C-2.86593084 20.20821222 -3.59608467 14.81243202 -7 10 C-13.64622512 5.56918325 -18.9509929 5.75752718 -25 11 Z " fill="#1E4A6A" transform="translate(98,22)"/>
<path d="M0 0 C5.9255433 4.84817179 10.01746286 10.71163184 10.9375 18.375 C11.35972658 27.92787639 9.49808269 35.75927929 3 43 C-4.27268047 48.96331334 -11.82061557 49.70417196 -21 49 C-27.95425651 47.54495556 -32.66574269 44.86780184 -37.1875 39.3125 C-41.90545208 30.69003585 -41.62680957 21.56014714 -40 12 C-37.62807549 5.76658238 -33.07071751 1.26862459 -27.26171875 -1.96875 C-18.3261011 -5.96480261 -8.2270992 -5.1737428 0 0 Z M-26 13 C-28.32696943 18.70107509 -28.60709667 24.02121773 -27 30 C-25.0730619 33.80570274 -22.87665143 36.32306502 -18.8125 37.7890625 C-14.66386158 38.50386169 -12.46808158 38.22537261 -8.625 36.375 C-5.20270828 33.27864082 -3.23859474 30.73799894 -2.6015625 26.09765625 C-2.55848889 18.06974112 -2.55848889 18.06974112 -6 11 C-9.06892837 8.40846049 -11.07639219 7.13194397 -15.0625 6.5625 C-19.52985624 7.22785093 -23.27554611 9.36739481 -26 13 Z " fill="#1F4A68" transform="translate(153,22)"/>
<path d="M0 0 C0.77146759 4.37164968 1.00514676 7.68903724 0 12 C-0.92619141 11.67515625 -0.92619141 11.67515625 -1.87109375 11.34375 C-7.80978817 9.39130252 -15.04279128 7.02139564 -21 10 C-20.67 11.65 -20.34 13.3 -20 15 C-19.20335937 15.24234375 -18.40671875 15.4846875 -17.5859375 15.734375 C-4.15536596 19.98248765 -4.15536596 19.98248765 -0.125 25.625 C1.81089984 31.43269951 1.98661748 36.62314881 -0.375 42.3125 C-6.08333525 48.156748 -11.92100424 50.30636443 -20.0625 50.5 C-25.9150573 50.2953204 -30.60568432 49.23213063 -36 47 C-36 43.04 -36 39.08 -36 35 C-31 36 -31 36 -28.25 37.0625 C-24.15708498 38.24314856 -20.23519683 38.54855883 -16 38 C-12.87525373 36.36526484 -12.87525373 36.36526484 -12.3125 33.875 C-12.209375 33.25625 -12.10625 32.6375 -12 32 C-12.66 32 -13.32 32 -14 32 C-14 31.34 -14 30.68 -14 30 C-14.6290625 29.90203125 -15.258125 29.8040625 -15.90625 29.703125 C-28.9907555 27.41727765 -28.9907555 27.41727765 -33.3828125 22.4296875 C-36.04990172 18.27052039 -36.67713998 14.82462232 -36 10 C-34.52180877 5.34675897 -32.7175923 2.06526584 -28.4375 -0.4375 C-18.99826911 -4.7280595 -9.45283463 -3.84522086 0 0 Z " fill="#FB8220" transform="translate(374,21)"/>
<path d="M0 0 C4.62 0 9.24 0 14 0 C14.125 8.5 14.125 8.5 13 13 C17.29 13 21.58 13 26 13 C26 16.63 26 20.26 26 24 C22.04 24 18.08 24 14 24 C13.94597416 27.56270373 13.9063125 31.12458523 13.875 34.6875 C13.85824219 35.69490234 13.84148437 36.70230469 13.82421875 37.74023438 C13.81777344 38.71669922 13.81132812 39.69316406 13.8046875 40.69921875 C13.79421387 41.59471436 13.78374023 42.49020996 13.77294922 43.4128418 C14.02842183 46.32385603 14.63842323 48.4151537 16 51 C19.69418201 52.231394 22.2056261 51.64432764 26 51 C27.20272819 53.40545638 27.10071472 54.94996953 27.0625 57.625 C27.05347656 58.44226563 27.04445313 59.25953125 27.03515625 60.1015625 C27.02355469 60.72804687 27.01195312 61.35453125 27 62 C22.00780613 64.99770493 16.64128139 64.49842647 11 64 C7.33450054 62.64955283 4.34812159 61.16996415 2 58 C0.26112713 53.61816782 -0.23842422 49.98824051 -0.1953125 45.2890625 C-0.18564453 43.42314453 -0.18564453 43.42314453 -0.17578125 41.51953125 C-0.15902344 40.23433594 -0.14226562 38.94914062 -0.125 37.625 C-0.11597656 36.31660156 -0.10695313 35.00820313 -0.09765625 33.66015625 C-0.07415085 30.4399163 -0.04129087 27.22005293 0 24 C-1.98 24 -3.96 24 -6 24 C-6.84098656 19.98195309 -7.05404945 16.98196457 -6 13 C-4.02 13 -2.04 13 0 13 C0 8.71 0 4.42 0 0 Z " fill="#FC8220" transform="translate(387,7)"/>
<path d="M0 0 C10.89 0 21.78 0 33 0 C33 0.33 33 0.66 33 1 C27.06 1.495 27.06 1.495 21 2 C23.64 2.33 26.28 2.66 29 3 C28.67 5.31 28.34 7.62 28 10 C23.59917251 10.85869805 19.47726307 11.0425899 15 11 C14.75141802 13.77034137 14.52547121 16.53939069 14.3125 19.3125 C14.23966797 20.09818359 14.16683594 20.88386719 14.09179688 21.69335938 C14.00961914 22.8293457 14.00961914 22.8293457 13.92578125 23.98828125 C13.86817627 24.68477783 13.81057129 25.38127441 13.7512207 26.09887695 C14.07761179 28.59309425 15.1101817 29.4211918 17 31 C16.01 31 15.02 31 14 31 C13.67 32.32 13.34 33.64 13 35 C16.23872132 36.07957377 18.66028205 36.13326784 22.0625 36.125 C23.12597656 36.12757812 24.18945312 36.13015625 25.28515625 36.1328125 C27.96704384 36.18438455 27.96704384 36.18438455 30 35 C30.66 35.33 31.32 35.66 32 36 C32 36.66 32 37.32 32 38 C32.99 38.33 33.98 38.66 35 39 C35 40.65 35 42.3 35 44 C34.34644531 43.35546875 33.69289062 42.7109375 33.01953125 42.046875 C29.12909216 39.40963039 26.26998482 39.34162165 21.6875 39.25 C17.8821875 39.12625 17.8821875 39.12625 14 39 C14 44.61 14 50.22 14 56 C19.61 56 25.22 56 31 56 C30.67 56.66 30.34 57.32 30 58 C24.39 58 18.78 58 13 58 C13.33 58.66 13.66 59.32 14 60 C15.65 60 17.3 60 19 60 C19.66 61.32 20.32 62.64 21 64 C20 65 20 65 16.18359375 65.09765625 C14.60153318 65.09098089 13.01948841 65.07901875 11.4375 65.0625 C10.63119141 65.05798828 9.82488281 65.05347656 8.99414062 65.04882812 C6.99606244 65.03700518 4.99802217 65.01906914 3 65 C2.67 64.34 2.34 63.68 2 63 C1.67 64.65 1.34 66.3 1 68 C0.67 68 0.34 68 0 68 C0 45.56 0 23.12 0 0 Z " fill="#275575" transform="translate(2,2)"/>
<path d="M0 0 C4.29 0 8.58 0 13 0 C18.71428571 10.57142857 18.71428571 10.57142857 18 16 C19.65 16.33 21.3 16.66 23 17 C23 18.32 23 19.64 23 21 C23.66 21 24.32 21 25 21 C24.49396008 23.16874252 24.00016187 24.99967627 23 27 C22.34 27 21.68 27 21 27 C21 27.66 21 28.32 21 29 C20.34 29 19.68 29 19 29 C18.7525 28.195625 18.505 27.39125 18.25 26.5625 C17.8375 25.716875 17.425 24.87125 17 24 C15.68 23.67 14.36 23.34 13 23 C12.67 37.52 12.34 52.04 12 67 C8.04 67 4.08 67 0 67 C0 44.89 0 22.78 0 0 Z " fill="#F88020" transform="translate(219,2)"/>
<path d="M0 0 C5.53582541 2.59844866 8.38791157 5.44809245 11.96875 10.35546875 C14.81583212 14.06215066 17.98559016 17.43126575 21.18066406 20.83789062 C28 28.13979572 28 28.13979572 28 31 C12.61044615 32.06895468 12.61044615 32.06895468 8.7578125 29.51171875 C7.08439448 27.1204143 6 24.9626948 6 22 C5.34 22 4.68 22 4 22 C2.34375 20.1015625 2.34375 20.1015625 0.5 17.625 C-1.26366443 15.27095638 -2.9191905 13.0808095 -5 11 C-5 10.01 -5 9.02 -5 8 C-5.66 8 -6.32 8 -7 8 C-7 15.26 -7 22.52 -7 30 C-10.96 30 -14.92 30 -19 30 C-19 29.67 -19 29.34 -19 29 C-15.37 29 -11.74 29 -8 29 C-8 21.74 -8 14.48 -8 7 C-5.6921509 5.84607545 -3.52769669 5.46562834 -1 5 C-1.33 4.34 -1.66 3.68 -2 3 C-1.34 2.01 -0.68 1.02 0 0 Z " fill="#214E6C" transform="translate(188,39)"/>
<path d="M0 0 C0.33 0 0.66 0 1 0 C1 22.11 1 44.22 1 67 C4.96 67 8.92 67 13 67 C13 52.15 13 37.3 13 22 C14.98 22.66 16.96 23.32 19 24 C19.33 25.65 19.66 27.3 20 29 C20.66 29 21.32 29 22 29 C22 28.34 22 27.68 22 27 C22.66 27 23.32 27 24 27 C23.67 26.01 23.34 25.02 23 24 C23.66 24 24.32 24 25 24 C25.33 23.01 25.66 22.02 26 21 C25.34 21 24.68 21 24 21 C23.67 19.68 23.34 18.36 23 17 C21.35 16.67 19.7 16.34 18 16 C18.061875 15.113125 18.12375 14.22625 18.1875 13.3125 C17.97920865 9.63268608 16.94612331 8.04610605 15 5 C15.33 4.34 15.66 3.68 16 3 C19 6.75 19 6.75 19 9 C19.66 9 20.32 9 21 9 C21.474375 9.9075 21.94875 10.815 22.4375 11.75 C27.94661371 21.66670016 27.94661371 21.66670016 36 29 C37.0703125 30.84765625 37.0703125 30.84765625 38.125 33.0625 C38.65480469 34.16271484 38.65480469 34.16271484 39.1953125 35.28515625 C39.46085937 35.85105469 39.72640625 36.41695312 40 37 C39.360625 37.268125 38.72125 37.53625 38.0625 37.8125 C35.66868314 38.88667752 35.66868314 38.88667752 35 42 C35.33 42.66 35.66 43.32 36 44 C35.01 44.495 35.01 44.495 34 45 C34.495 48.465 34.495 48.465 35 52 C27.92346305 43.29041607 21.52723871 34.1381342 15 25 C14.67 39.19 14.34 53.38 14 68 C9.38 68 4.76 68 0 68 C0 45.56 0 23.12 0 0 Z " fill="#F7984F" transform="translate(218,2)"/>
<path d="M0 0 C0.763125 0.639375 1.52625 1.27875 2.3125 1.9375 C7.21749939 5.70180186 12.05116541 5.48894531 18 5 C21.7524875 4.18711858 25.32384879 3.13112345 29 2 C29 5.63 29 9.26 29 13 C22.82711172 16.30177745 18.03653563 17.14963879 11.0625 17.1875 C9.87785156 17.20167969 8.69320313 17.21585938 7.47265625 17.23046875 C1.92563854 16.86233147 -2.41545174 15.10131206 -7 12 C-7 11.67 -7 11.34 -7 11 C-4.36 11 -1.72 11 1 11 C2.21081851 7.89459074 2.21081851 7.89459074 2 4 C1.34 4 0.68 4 0 4 C0 2.68 0 1.36 0 0 Z " fill="#FA8121" transform="translate(299,54)"/>
<path d="M0 0 C4.62 0 9.24 0 14 0 C14.125 8.5 14.125 8.5 13 13 C17.29 13 21.58 13 26 13 C26 16.63 26 20.26 26 24 C22.04 24 18.08 24 14 24 C13.94597416 27.56270373 13.9063125 31.12458523 13.875 34.6875 C13.85824219 35.69490234 13.84148437 36.70230469 13.82421875 37.74023438 C13.81455078 39.20493164 13.81455078 39.20493164 13.8046875 40.69921875 C13.78897705 42.04246216 13.78897705 42.04246216 13.77294922 43.4128418 C14.02842183 46.32385603 14.63842323 48.4151537 16 51 C19.69418201 52.231394 22.2056261 51.64432764 26 51 C27.20272819 53.40545638 27.10071472 54.94996953 27.0625 57.625 C27.05347656 58.44226563 27.04445313 59.25953125 27.03515625 60.1015625 C27.02355469 60.72804687 27.01195312 61.35453125 27 62 C22.01729893 64.99200471 16.6319429 64.51813875 11 64 C8.63025211 63.24360446 7.08422349 62.38948233 5 61 C7.64458379 59.67770811 9.67761301 59.90322806 12.625 59.9375 C14.12933594 59.95103516 14.12933594 59.95103516 15.6640625 59.96484375 C16.43492187 59.97644531 17.20578125 59.98804688 18 60 C18.66 58.68 19.32 57.36 20 56 C18.68 56 17.36 56 16 56 C15.34 54.35 14.68 52.7 14 51 C13.34 51 12.68 51 12 51 C11.9421696 46.54172074 11.90646145 42.0835372 11.875 37.625 C11.85824219 36.35398438 11.84148437 35.08296875 11.82421875 33.7734375 C11.81777344 32.56171875 11.81132812 31.35 11.8046875 30.1015625 C11.79421387 28.98088379 11.78374023 27.86020508 11.77294922 26.70556641 C12 24 12 24 14 22 C16.3828125 21.5859375 16.3828125 21.5859375 19.125 21.375 C20.03507812 21.30023437 20.94515625 21.22546875 21.8828125 21.1484375 C22.58148438 21.09945313 23.28015625 21.05046875 24 21 C24 19.35 24 17.7 24 16 C23.22914063 15.96261719 22.45828125 15.92523438 21.6640625 15.88671875 C20.66117187 15.82097656 19.65828125 15.75523438 18.625 15.6875 C17.62726563 15.62949219 16.62953125 15.57148438 15.6015625 15.51171875 C14.74304688 15.34285156 13.88453125 15.17398437 13 15 C10.71937172 11.57905758 10.78074993 10.31812778 10.875 6.3125 C10.89304687 5.31863281 10.91109375 4.32476562 10.9296875 3.30078125 C10.95289063 2.54152344 10.97609375 1.78226563 11 1 C6.545 1.495 6.545 1.495 2 2 C1.67 5.3 1.34 8.6 1 12 C0.67 12 0.34 12 0 12 C0 8.04 0 4.08 0 0 Z " fill="#EE8637" transform="translate(387,7)"/>
<path d="M0 0 C6.86641892 3.22301296 11.5856326 8.1712652 15 15 C11.99580359 16.0013988 9.12290635 16.51421457 6 17 C6 17.66 6 18.32 6 19 C3.15301606 18.91626518 1.448839 18.40889548 -0.66796875 16.48046875 C-5 11.59278504 -5 11.59278504 -5 8 C-5.66 8 -6.32 8 -7 8 C-7 15.26 -7 22.52 -7 30 C-10.96 30 -14.92 30 -19 30 C-19 29.67 -19 29.34 -19 29 C-15.37 29 -11.74 29 -8 29 C-8 21.74 -8 14.48 -8 7 C-5.6921509 5.84607545 -3.52769669 5.46562834 -1 5 C-1.33 4.34 -1.66 3.68 -2 3 C-1.34 2.01 -0.68 1.02 0 0 Z " fill="#1A4664" transform="translate(188,39)"/>
<path d="M0 0 C4.29 0 8.58 0 13 0 C14.39226892 2.78453783 14.1272341 5.06259336 14.12939453 8.17797852 C14.13254669 9.47594864 14.13569885 10.77391876 14.13894653 12.11122131 C14.13715689 13.5337833 14.13510597 14.95634498 14.1328125 16.37890625 C14.13348578 17.83096839 14.13445601 19.28303041 14.13571167 20.73509216 C14.13718704 23.77905347 14.13503893 26.82298546 14.13037109 29.86694336 C14.12466882 33.7768693 14.12795696 37.68672669 14.13394356 41.59665012 C14.13754919 44.5948285 14.13641067 47.5929905 14.13381577 50.59116936 C14.13314676 52.03333481 14.13397399 53.47550174 14.13629532 54.91766548 C14.13882238 56.92891539 14.13429079 58.94017048 14.12939453 60.95141602 C14.12859894 62.09788101 14.12780334 63.24434601 14.12698364 64.42555237 C14 67 14 67 13 68 C10.98035801 68.07244053 8.95832876 68.08377188 6.9375 68.0625 C5.83277344 68.05347656 4.72804688 68.04445313 3.58984375 68.03515625 C2.73519531 68.02355469 1.88054687 68.01195313 1 68 C0.67 67.34 0.34 66.68 0 66 C3.96 66 7.92 66 12 66 C11.96970703 64.80737549 11.93941406 63.61475098 11.90820312 62.38598633 C11.79373464 57.85138194 11.68278163 53.31669654 11.57275391 48.78198242 C11.52517191 46.83990236 11.47670562 44.8978437 11.42724609 42.95581055 C11.08029303 29.30072932 10.93667642 15.65942371 11 2 C8.03 2 5.06 2 2 2 C2 15.53 2 29.06 2 43 C0.02 43.495 0.02 43.495 -2 44 C-2.66 43.34 -3.32 42.68 -4 42 C-3.625 39.875 -3.625 39.875 -3 38 C-2.34 39.32 -1.68 40.64 -1 42 C-0.67 28.14 -0.34 14.28 0 0 Z " fill="#ED9250" transform="translate(263,2)"/>
<path d="M0 0 C6.34507042 0.59859155 6.34507042 0.59859155 8.9375 2.1875 C10.47273259 4.80642619 10.1980568 7.02914805 10 10 C8.3767313 10.6708712 6.75132422 11.33657029 5.125 12 C4.22007812 12.37125 3.31515625 12.7425 2.3828125 13.125 C0 14 0 14 -2 14 C-2 14.66 -2 15.32 -2 16 C-5 15 -5 15 -6 14 C-7.66617115 13.95936168 -9.33388095 13.957279 -11 14 C-10.67 14.99 -10.34 15.98 -10 17 C-3.88661433 20.0011166 1.25970691 20.37292605 8 20 C8 19.34 8 18.68 8 18 C9.98 18 11.96 18 14 18 C7.58521163 23.08759077 0.91812603 22.51416403 -7 22 C-10.2144035 21.26085909 -12.94004543 20.2661881 -16 19 C-16 15.04 -16 11.08 -16 7 C-11 8 -11 8 -8.25 9.0625 C-4.15708498 10.24314856 -0.23519683 10.54855883 4 10 C7.12474627 8.36526484 7.12474627 8.36526484 7.6875 5.875 C7.790625 5.25625 7.89375 4.6375 8 4 C7.34 4 6.68 4 6 4 C6 3.34 6 2.68 6 2 C3.03 1.505 3.03 1.505 0 1 C0 0.67 0 0.34 0 0 Z " fill="#F38227" transform="translate(354,49)"/>
<path d="M0 0 C0.66 0.33 1.32 0.66 2 1 C1.814375 2.03125 1.62875 3.0625 1.4375 4.125 C0.81294724 7.89047935 0.81294724 7.89047935 1.625 11.125 C2.09725802 14.74564478 1.11810654 16.11937511 -1 19 C-4.875 14.25 -4.875 14.25 -6 12 C-6.99 12.33 -7.98 12.66 -9 13 C-9.33 12.67 -9.66 12.34 -10 12 C-14.24705371 20.32422527 -13.63197583 29.62479336 -10.94921875 38.4609375 C-10.63597656 39.29882812 -10.32273437 40.13671875 -10 41 C-10.99 41.495 -10.99 41.495 -12 42 C-15.90388394 32.32515718 -16.8456639 24.22017161 -14 14 C-10.74961285 7.44665879 -6.80290733 2.80119714 0 0 Z " fill="#F7872C" transform="translate(299,19)"/>
<path d="M0 0 C7.94957992 -0.22428282 15.27111181 0.04596958 23 2 C23 4.31 23 6.62 23 9 C21.68 9.33 20.36 9.66 19 10 C19 9.34 19 8.68 19 8 C18.23042969 8.24169922 18.23042969 8.24169922 17.4453125 8.48828125 C14.22755306 9.16164624 11.16076404 9.17035092 7.875 9.1875 C6.63492187 9.20167969 5.39484375 9.21585938 4.1171875 9.23046875 C1 9 1 9 -1 7 C-0.625 4.375 -0.625 4.375 0 2 C0.99 2 1.98 2 3 2 C2.01 1.34 1.02 0.68 0 0 Z " fill="#184B6D" transform="translate(15,30)"/>
<path d="M0 0 C3.99604966 2.3976298 4.79411794 4.57498216 6 9 C6.30205153 11.42954491 6.53012478 13.86931424 6.6875 16.3125 C6.77386719 17.54613281 6.86023438 18.77976562 6.94921875 20.05078125 C6.96597656 21.02402344 6.98273438 21.99726562 7 23 C6 24 6 24 2.94897461 24.11352539 C1.60008729 24.11336634 0.25119386 24.10767612 -1.09765625 24.09765625 C-2.16094398 24.09553383 -2.16094398 24.09553383 -3.24571228 24.09336853 C-5.51801712 24.08775443 -7.79022475 24.07519963 -10.0625 24.0625 C-11.59960796 24.05748681 -13.13671745 24.05292359 -14.67382812 24.04882812 C-18.44925642 24.03778042 -22.22461171 24.02050641 -26 24 C-25.67 25.65 -25.34 27.3 -25 29 C-25.66 29.33 -26.32 29.66 -27 30 C-28.35802469 22.71604938 -28.35802469 22.71604938 -26.625 19.25 C-26.08875 18.5075 -25.5525 17.765 -25 17 C-24.30420546 14.80869466 -24.30420546 14.80869466 -24 13 C-21.69 13.33 -19.38 13.66 -17 14 C-17.1875 16.375 -17.1875 16.375 -18 19 C-19.65 19.66 -21.3 20.32 -23 21 C-9.14 21.495 -9.14 21.495 5 22 C4.24117193 10.91879655 4.24117193 10.91879655 0 2 C0 1.34 0 0.68 0 0 Z " fill="#F47E25" transform="translate(324,25)"/>
<path d="M0 0 C0.33 0 0.66 0 1 0 C1.33 20.79 1.66 41.58 2 63 C11.57 63 21.14 63 31 63 C31.495 63.99 31.495 63.99 32 65 C21.87577163 68.37474279 10.67187373 66 0 66 C0 44.22 0 22.44 0 0 Z " fill="#27465B" transform="translate(3,4)"/>
<path d="M0 0 C4.62 0 9.24 0 14 0 C14.125 8.5 14.125 8.5 13 13 C17.29 13 21.58 13 26 13 C26 16.63 26 20.26 26 24 C22.04 24 18.08 24 14 24 C14 30.6 14 37.2 14 44 C13.67 44 13.34 44 13 44 C13 37.07 13 30.14 13 23 C17.44992574 21.22002971 19.43711531 20.78777281 24 21 C24 19.35 24 17.7 24 16 C23.22914063 15.96261719 22.45828125 15.92523438 21.6640625 15.88671875 C20.66117187 15.82097656 19.65828125 15.75523438 18.625 15.6875 C17.62726563 15.62949219 16.62953125 15.57148438 15.6015625 15.51171875 C14.74304688 15.34285156 13.88453125 15.17398437 13 15 C10.71937172 11.57905758 10.78074993 10.31812778 10.875 6.3125 C10.89304687 5.31863281 10.91109375 4.32476562 10.9296875 3.30078125 C10.95289063 2.54152344 10.97609375 1.78226563 11 1 C6.545 1.495 6.545 1.495 2 2 C1.67 5.3 1.34 8.6 1 12 C0.67 12 0.34 12 0 12 C0 8.04 0 4.08 0 0 Z " fill="#F19D58" transform="translate(387,7)"/>
<path d="M0 0 C2.7920301 0.1404983 5.58349796 0.28715383 8.375 0.4375 C9.1690625 0.47681641 9.963125 0.51613281 10.78125 0.55664062 C16.7734375 0.88671875 16.7734375 0.88671875 19 2 C19.625 5.0625 19.625 5.0625 20 8 C18.41773035 8.19627391 16.83410729 8.38165538 15.25 8.5625 C14.36828125 8.66691406 13.4865625 8.77132812 12.578125 8.87890625 C10.11567549 8.99456676 8.33461936 8.73638695 6 8 C6 8.66 6 9.32 6 10 C3 9 3 9 1 8 C1 7.01 1 6.02 1 5 C0.01 4.67 -0.98 4.34 -2 4 C-1.34 2.68 -0.68 1.36 0 0 Z " fill="#174666" transform="translate(69,59)"/>
<path d="M0 0 C0.66 0.33 1.32 0.66 2 1 C1.67 1.66 1.34 2.32 1 3 C1.99 3 2.98 3 4 3 C4.33 3.99 4.66 4.98 5 6 C4.505 6.45375 4.01 6.9075 3.5 7.375 C1.77390663 8.87635519 1.77390663 8.87635519 2 11 C2.99 11.33 3.98 11.66 5 12 C1.43182513 12.80947706 -1.90481856 13.16206411 -5.5625 13.1875 C-6.95662109 13.20876953 -6.95662109 13.20876953 -8.37890625 13.23046875 C-11.07488389 12.99341557 -12.69407875 12.37270136 -15 11 C-14.67 10.34 -14.34 9.68 -14 9 C-13.34 9 -12.68 9 -12 9 C-11.67 7.35 -11.34 5.7 -11 4 C-7.37 4 -3.74 4 0 4 C0 3.34 0 2.68 0 2 C-0.66 1.67 -1.32 1.34 -2 1 C-1.34 0.67 -0.68 0.34 0 0 Z " fill="#2A5370" transform="translate(143,58)"/>
<path d="M0 0 C0.99 0.33 1.98 0.66 3 1 C3 1.66 3 2.32 3 3 C3.99 3.33 4.98 3.66 6 4 C6 5.65 6 7.3 6 9 C5.34644531 8.35546875 4.69289063 7.7109375 4.01953125 7.046875 C0.12909216 4.40963039 -2.73001518 4.34162165 -7.3125 4.25 C-9.849375 4.1675 -12.38625 4.085 -15 4 C-15 9.61 -15 15.22 -15 21 C-9.39 21 -3.78 21 2 21 C1.67 21.66 1.34 22.32 1 23 C-4.94 23 -10.88 23 -17 23 C-17 16.4 -17 9.8 -17 3 C-12.88081437 0.94040719 -11.26446586 0.80193466 -6.8125 0.9375 C-4.87563691 0.99136681 -2.93750336 1.02051819 -1 1 C-0.67 0.67 -0.34 0.34 0 0 Z " fill="#3F5C71" transform="translate(31,37)"/>
<path d="M0 0 C2.56314499 -0.08132187 5.12368418 -0.14064175 7.6875 -0.1875 C8.40873047 -0.21263672 9.12996094 -0.23777344 9.87304688 -0.26367188 C14.47589338 -0.32672457 17.30307233 0.22183542 21 3 C20.67 4.65 20.34 6.3 20 8 C16.10939581 9.4049404 12.76907638 8.69513239 8.75 8.0625 C7.48671875 7.86785156 6.2234375 7.67320313 4.921875 7.47265625 C3.95765625 7.31667969 2.9934375 7.16070313 2 7 C2.66 6.01 3.32 5.02 4 4 C2.35 3.67 0.7 3.34 -1 3 C-0.67 2.01 -0.34 1.02 0 0 Z " fill="#FD821D" transform="translate(352,20)"/>
<path d="M0 0 C3.24992446 -0.05819424 6.49971435 -0.09366116 9.75 -0.125 C10.67039062 -0.14175781 11.59078125 -0.15851562 12.5390625 -0.17578125 C13.42851562 -0.18222656 14.31796875 -0.18867187 15.234375 -0.1953125 C16.05131836 -0.20578613 16.86826172 -0.21625977 17.70996094 -0.22705078 C20.21887518 0.02170084 21.83395625 0.74299871 24 2 C23.625 3.9375 23.625 3.9375 23 6 C19.99686252 7.50156874 17.20932478 7.09281204 13.875 7.0625 C12.59367187 7.05347656 11.31234375 7.04445313 9.9921875 7.03515625 C9.00476562 7.02355469 8.01734375 7.01195313 7 7 C6.67 5.35 6.34 3.7 6 2 C4.02 2.33 2.04 2.66 0 3 C0 2.01 0 1.02 0 0 Z " fill="#1A4A6C" transform="translate(15,60)"/>
<path d="M0 0 C0.77146759 4.37164968 1.00514676 7.68903724 0 12 C-0.87398438 11.67515625 -0.87398438 11.67515625 -1.765625 11.34375 C-8.63896743 9.00940729 -14.77773277 8.66494637 -22 9 C-22 8.34 -22 7.68 -22 7 C-15.73 7 -9.46 7 -3 7 C-2.67 5.35 -2.34 3.7 -2 2 C-5.8415976 -0.56780471 -9.8139175 -0.22688882 -14.25 -0.125 C-14.99507813 -0.11597656 -15.74015625 -0.10695313 -16.5078125 -0.09765625 C-18.33868059 -0.07418358 -20.16938238 -0.03831525 -22 0 C-22 0.99 -22 1.98 -22 3 C-22.9075 2.79375 -23.815 2.5875 -24.75 2.375 C-28.11027897 1.9872755 -29.24075815 2.19588033 -32 4 C-31 1 -31 1 -29.390625 -0.16796875 C-19.59838522 -4.83179098 -9.86291098 -4.01203159 0 0 Z " fill="#E78F4A" transform="translate(374,21)"/>
<path d="M0 0 C2.1875 -0.4375 2.1875 -0.4375 5 0 C8.58813113 3.42865863 9.85019453 5.38959117 10.3125 10.359375 C10.3125 13.58803081 10.21794896 16.77919877 10 20 C9.67 20 9.34 20 9 20 C8.34 16.7 7.68 13.4 7 10 C6.01 10.66 5.02 11.32 4 12 C2.35 10.68 0.7 9.36 -1 8 C-1 10.31 -1 12.62 -1 15 C-1.99 15.33 -2.98 15.66 -4 16 C-4.08004482 12.4780279 -4.04005702 9.38018531 -3 6 C-2.01 6 -1.02 6 0 6 C0 4.02 0 2.04 0 0 Z " fill="#2C5675" transform="translate(41,37)"/>
<path d="M0 0 C4.29 0 8.58 0 13 0 C14.39226892 2.78453783 14.1272341 5.06259336 14.12939453 8.17797852 C14.13254669 9.47594864 14.13569885 10.77391876 14.13894653 12.11122131 C14.13715689 13.5337833 14.13510597 14.95634498 14.1328125 16.37890625 C14.13348578 17.83096839 14.13445601 19.28303041 14.13571167 20.73509216 C14.13718704 23.77905347 14.13503893 26.82298546 14.13037109 29.86694336 C14.12466882 33.7768693 14.12795696 37.68672669 14.13394356 41.59665012 C14.13754919 44.5948285 14.13641067 47.5929905 14.13381577 50.59116936 C14.13314676 52.03333481 14.13397399 53.47550174 14.13629532 54.91766548 C14.13882238 56.92891539 14.13429079 58.94017048 14.12939453 60.95141602 C14.12820114 62.67111351 14.12820114 62.67111351 14.12698364 64.42555237 C14 67 14 67 13 68 C10.98035801 68.07244053 8.95832876 68.08377188 6.9375 68.0625 C5.83277344 68.05347656 4.72804688 68.04445313 3.58984375 68.03515625 C2.73519531 68.02355469 1.88054687 68.01195313 1 68 C0.67 67.34 0.34 66.68 0 66 C3.96 66 7.92 66 12 66 C12 44.55 12 23.1 12 1 C6.06 1.495 6.06 1.495 0 2 C0 1.34 0 0.68 0 0 Z " fill="#CE7C46" transform="translate(263,2)"/>
<path d="M0 0 C3.79165074 -0.0289337 7.58327327 -0.04677601 11.375 -0.0625 C12.45523437 -0.07087891 13.53546875 -0.07925781 14.6484375 -0.08789062 C16.1953125 -0.09272461 16.1953125 -0.09272461 17.7734375 -0.09765625 C18.72653809 -0.10289307 19.67963867 -0.10812988 20.66162109 -0.11352539 C23 0 23 0 25 1 C25 1.66 25 2.32 25 3 C24.01 3.33 23.02 3.66 22 4 C21.67 4.66 21.34 5.32 21 6 C20.34 6 19.68 6 19 6 C19.57344937 8.86724686 19.8614515 9.8614515 22 12 C22.26991906 14.68839385 22.08737357 17.29141936 22 20 C21.67 20 21.34 20 21 20 C20.71125 18.88625 20.4225 17.7725 20.125 16.625 C18.94122527 12.81061477 18.33412205 11.70629991 14.875 9.875 C13.946875 9.441875 13.946875 9.441875 13 9 C13.99 6.69 14.98 4.38 16 2 C10.72 1.67 5.44 1.34 0 1 C0 0.67 0 0.34 0 0 Z " fill="#214661" transform="translate(15,3)"/>
<path d="M0 0 C0.37511719 0.61875 0.75023437 1.2375 1.13671875 1.875 C3.50383081 4.5745995 5.38058954 5.03302146 8.8125 6 C14.86584622 7.88618759 19.0795152 9.31132128 22.875 14.625 C24.38289301 19.14867904 24.25202974 23.27677595 24 28 C23.67 28 23.34 28 23 28 C22.34 23.38 21.68 18.76 21 14 C20.01 13.67 19.02 13.34 18 13 C18 12.34 18 11.68 18 11 C15.03 10.505 15.03 10.505 12 10 C12.33 11.65 12.66 13.3 13 15 C11.35 15 9.7 15 8 15 C8.33 13.02 8.66 11.04 9 9 C8.01 9 7.02 9 6 9 C6 8.34 6 7.68 6 7 C4.35 7 2.7 7 1 7 C1 6.34 1 5.68 1 5 C0.01 5 -0.98 5 -2 5 C-1.34 3.35 -0.68 1.7 0 0 Z " fill="#F88125" transform="translate(351,32)"/>
<path d="M0 0 C0 2 0 2 -2.5 4.625 C-3.325 5.40875 -4.15 6.1925 -5 7 C-4.67 7.66 -4.34 8.32 -4 9 C-10.258654 9.5326514 -14.45108785 7.81849506 -20 5 C-20 4.01 -20 3.02 -20 2 C-16.535 1.505 -16.535 1.505 -13 1 C-13 1.66 -13 2.32 -13 3 C-12.34 3.33 -11.68 3.66 -11 4 C-11 3.34 -11 2.68 -11 2 C-9.5422647 1.664061 -8.08378894 1.33133376 -6.625 1 C-5.81289063 0.814375 -5.00078125 0.62875 -4.1640625 0.4375 C-2 0 -2 0 0 0 Z " fill="#FD801C" transform="translate(363,61)"/>
<path d="M0 0 C5.12583611 -0.10251672 9.94997778 -0.03590199 15 1 C14.34 2.32 13.68 3.64 13 5 C12.01 5 11.02 5 10 5 C9.67 4.34 9.34 3.68 9 3 C8.67 3.66 8.34 4.32 8 5 C7.01 5 6.02 5 5 5 C5 5.66 5 6.32 5 7 C5.66 7.33 6.32 7.66 7 8 C4.36 8.99 1.72 9.98 -1 11 C-1.86516528 6.50114053 -2.30903272 3.98352209 0 0 Z " fill="#FA8120" transform="translate(301,19)"/>
<path d="M0 0 C5 1 5 1 7 3 C6.01 3.495 6.01 3.495 5 4 C4.01 3.67 3.02 3.34 2 3 C1.67 5.64 1.34 8.28 1 11 C1.99 11 2.98 11 4 11 C3.67 9.68 3.34 8.36 3 7 C3.66 7 4.32 7 5 7 C5.33 7.99 5.66 8.98 6 10 C12.11338567 13.0011166 17.25970691 13.37292605 24 13 C24 12.34 24 11.68 24 11 C25.98 11 27.96 11 30 11 C23.58521163 16.08759077 16.91812603 15.51416403 9 15 C5.7855965 14.26085909 3.05995457 13.2661881 0 12 C0 8.04 0 4.08 0 0 Z " fill="#EE8641" transform="translate(338,56)"/>
<path d="M0 0 C1.7290774 -0.02725341 3.45828176 -0.04650987 5.1875 -0.0625 C6.15042969 -0.07410156 7.11335938 -0.08570313 8.10546875 -0.09765625 C10.85576513 -0.00486622 13.32479591 0.37888315 16 1 C12.68629 3.20914 11.6553979 3.22481553 7.8125 3.125 C6.91144531 3.10695313 6.01039062 3.08890625 5.08203125 3.0703125 C4.39496094 3.04710937 3.70789063 3.02390625 3 3 C2.75141802 5.77034137 2.52547121 8.53939069 2.3125 11.3125 C2.23966797 12.09818359 2.16683594 12.88386719 2.09179688 13.69335938 C2.03701172 14.45068359 1.98222656 15.20800781 1.92578125 15.98828125 C1.86817627 16.68477783 1.81057129 17.38127441 1.7512207 18.09887695 C2.07761179 20.59309425 3.1101817 21.4211918 5 23 C3.35 23 1.7 23 0 23 C-0.91415319 19.11122133 -1.13432455 15.49090618 -1.125 11.5 C-1.12757812 10.3965625 -1.13015625 9.293125 -1.1328125 8.15625 C-1.01325821 5.31507756 -0.64925815 2.76192358 0 0 Z " fill="#2D4F68" transform="translate(14,10)"/>
<path d="M0 0 C0.66 0.66 1.32 1.32 2 2 C1.34 2 0.68 2 0 2 C0 1.34 0 0.68 0 0 Z M-2 1 C1.12290635 1.48578543 3.99580359 1.9986012 7 3 C6.74438677 5.3431213 6.40729228 7.67843403 6 10 C5.01 10.495 5.01 10.495 4 11 C4 10.34 4 9.68 4 9 C3.34 9 2.68 9 2 9 C1.34 11.31 0.68 13.62 0 16 C-0.66 15.67 -1.32 15.34 -2 15 C-2.44921875 12.6015625 -2.44921875 12.6015625 -2.6875 9.625 C-2.77386719 8.64789063 -2.86023438 7.67078125 -2.94921875 6.6640625 C-3 4 -3 4 -2 1 Z " fill="#174868" transform="translate(154,28)"/>
<path d="M0 0 C2.475 0.495 2.475 0.495 5 1 C5 2.32 5 3.64 5 5 C5.66 5 6.32 5 7 5 C7.33 5.66 7.66 6.32 8 7 C11.0399648 7.69337792 11.0399648 7.69337792 14.5625 8.125 C16.35880859 8.37636719 16.35880859 8.37636719 18.19140625 8.6328125 C19.11824219 8.75398438 20.04507813 8.87515625 21 9 C21.33 8.34 21.66 7.68 22 7 C23.5 8.375 23.5 8.375 25 10 C25 10.66 25 11.32 25 12 C9.61044615 13.06895468 9.61044615 13.06895468 5.7578125 10.51171875 C4.08439448 8.1204143 3 5.9626948 3 3 C2.34 3 1.68 3 1 3 C0.67 2.01 0.34 1.02 0 0 Z " fill="#344E60" transform="translate(191,58)"/>
<path d="M0 0 C0.763125 0.61875 1.52625 1.2375 2.3125 1.875 C4.99625809 4.05597052 4.99625809 4.05597052 8 6 C7.34 6 6.68 6 6 6 C6 6.99 6 7.98 6 9 C6.66 9 7.32 9 8 9 C8 10.32 8 11.64 8 13 C5.03 12.505 5.03 12.505 2 12 C2 9.36 2 6.72 2 4 C1.34 4 0.68 4 0 4 C0 2.68 0 1.36 0 0 Z M-7 11 C-1.71502591 10.55958549 -1.71502591 10.55958549 1 11 C3.5 13.5 3.5 13.5 5 16 C-0.27790097 16.50265724 -2.86225252 15.25108731 -7 12 C-7 11.67 -7 11.34 -7 11 Z " fill="#F38733" transform="translate(299,54)"/>
<path d="M0 0 C3.99604966 2.3976298 4.79411794 4.57498216 6 9 C6.30205153 11.42954491 6.53012478 13.86931424 6.6875 16.3125 C6.77386719 17.54613281 6.86023438 18.77976562 6.94921875 20.05078125 C6.96597656 21.02402344 6.98273438 21.99726562 7 23 C6 24 6 24 2.94897461 24.11352539 C1.60008729 24.11336634 0.25119386 24.10767612 -1.09765625 24.09765625 C-2.16094398 24.09553383 -2.16094398 24.09553383 -3.24571228 24.09336853 C-5.51801712 24.08775443 -7.79022475 24.07519963 -10.0625 24.0625 C-11.59960796 24.05748681 -13.13671745 24.05292359 -14.67382812 24.04882812 C-18.44925642 24.03778042 -22.22461171 24.02050641 -26 24 C-26.33 24.66 -26.66 25.32 -27 26 C-27 25.01 -27 24.02 -27 23 C-16.44 22.67 -5.88 22.34 5 22 C4.24117193 10.91879655 4.24117193 10.91879655 0 2 C0 1.34 0 0.68 0 0 Z " fill="#E48C4B" transform="translate(324,25)"/>
<path d="M0 0 C4.62 0 9.24 0 14 0 C11.4375 5.125 11.4375 5.125 9 7 C7.68 7 6.36 7 5 7 C5 7.99 5 8.98 5 10 C3.125 9.75 3.125 9.75 1 9 C-0.25 6.9375 -0.25 6.9375 -1 5 C-0.34 4.34 0.32 3.68 1 3 C1.66 3.66 2.32 4.32 3 5 C3.66 4.01 4.32 3.02 5 2 C3.35 1.67 1.7 1.34 0 1 C0 0.67 0 0.34 0 0 Z " fill="#194766" transform="translate(199,20)"/>
<path d="M0 0 C2.02910711 0.25327449 4.04962145 0.57730068 6.0625 0.9375 C7.16722656 1.13214844 8.27195313 1.32679687 9.41015625 1.52734375 C10.69212891 1.76130859 10.69212891 1.76130859 12 2 C12 2.66 12 3.32 12 4 C8.7 4.33 5.4 4.66 2 5 C1.67 6.65 1.34 8.3 1 10 C-0.65 10.33 -2.3 10.66 -4 11 C-4.33 10.34 -4.66 9.68 -5 9 C-4.67 8.34 -4.34 7.68 -4 7 C-4.66 6.67 -5.32 6.34 -6 6 C-4 4 -2 2 0 0 Z " fill="#20445F" transform="translate(131,58)"/>
<path d="M0 0 C0.66 0 1.32 0 2 0 C2.33 10.23 2.66 20.46 3 31 C3.66 31 4.32 31 5 31 C5 32.65 5 34.3 5 36 C1.30431912 33.53621274 1.05991894 32.23402789 0 28 C-0.22705078 24.74853516 -0.22705078 24.74853516 -0.1953125 21.2890625 C-0.18886719 20.04511719 -0.18242187 18.80117188 -0.17578125 17.51953125 C-0.15902344 16.23433594 -0.14226562 14.94914062 -0.125 13.625 C-0.11597656 12.31660156 -0.10695313 11.00820313 -0.09765625 9.66015625 C-0.07415085 6.4399163 -0.04129087 3.22005293 0 0 Z " fill="#EE904D" transform="translate(387,31)"/>
<path d="M0 0 C4.21228561 1.56010578 6.34546845 4.4845393 9 8 C10.75326103 13.25978309 10.69732734 18.20687254 8.6875 23.375 C7.26471435 25.58822212 5.98769071 27.29626511 4 29 C3.34 28.67 2.68 28.34 2 28 C3.75 24.125 3.75 24.125 6 23 C8.34117479 17.14706303 7.25925566 10.64813915 5 5 C3.35 4.67 1.7 4.34 0 4 C0 2.68 0 1.36 0 0 Z " fill="#3C5364" transform="translate(40,4)"/>
<path d="M0 0 C6.93 0 13.86 0 21 0 C15.93855486 3.79608385 13.21015947 4.1486865 7 4.1875 C5.96875 4.20167969 4.9375 4.21585937 3.875 4.23046875 C1.03454797 4.00276947 -0.59107948 3.46504061 -3 2 C-2.01 2 -1.02 2 0 2 C0 1.34 0 0.68 0 0 Z " fill="#2F4D62" transform="translate(75,67)"/>
<path d="M0 0 C2.01822917 0.06510417 4.03645833 0.13020833 6.0546875 0.1953125 C7.1171875 2.0703125 7.1171875 2.0703125 8.0546875 4.1953125 C7.7246875 4.8553125 7.3946875 5.5153125 7.0546875 6.1953125 C3.7546875 6.1953125 0.4546875 6.1953125 -2.9453125 6.1953125 C-3.2753125 4.8753125 -3.6053125 3.5553125 -3.9453125 2.1953125 C-1.9453125 0.1953125 -1.9453125 0.1953125 0 0 Z " fill="#19496E" transform="translate(22.9453125,31.8046875)"/>
<path d="M0 0 C1 3 1 3 -0.5 6.25 C-3.73834279 14.20538091 -1.92298877 24.18130575 1 32 C0.01 32.495 0.01 32.495 -1 33 C-4.93212208 23.25517572 -5.56045949 15.32021937 -3 5 C-1.421875 2.1015625 -1.421875 2.1015625 0 0 Z " fill="#E48A48" transform="translate(288,28)"/>
<path d="M0 0 C0.99 0.66 1.98 1.32 3 2 C-4.92 2.495 -4.92 2.495 -13 3 C-13 3.99 -13 4.98 -13 6 C-13.9075 5.79375 -14.815 5.5875 -15.75 5.375 C-19.11027897 4.9872755 -20.24075815 5.19588033 -23 7 C-22 4 -22 4 -20.390625 2.83203125 C-13.72731049 -0.34155467 -7.31909047 -0.87180302 0 0 Z " fill="#E98743" transform="translate(365,18)"/>
<path d="M0 0 C1.37562854 1.28965176 2.70766393 2.62689293 4 4 C4 4.66 4 5.32 4 6 C4.66 6 5.32 6 6 6 C6.556875 7.03125 7.11375 8.0625 7.6875 9.125 C9.77145129 12.7924555 12.22036927 15.83430945 15 19 C14.67 19.66 14.34 20.32 14 21 C9.2 18.53846154 9.2 18.53846154 8.1875 15.8125 C8.125625 15.214375 8.06375 14.61625 8 14 C6.35 13.67 4.7 13.34 3 13 C3.0928125 11.6696875 3.0928125 11.6696875 3.1875 10.3125 C2.97896309 6.62834788 2.0126182 5.01892731 0 2 C0 1.34 0 0.68 0 0 Z " fill="#F08D42" transform="translate(233,5)"/>
<path d="M0 0 C0.99 0 1.98 0 3 0 C3 0.66 3 1.32 3 2 C3.66 2.33 4.32 2.66 5 3 C4.20207031 3.67417969 3.40414062 4.34835938 2.58203125 5.04296875 C-0.51427207 8.58896211 -0.83658462 10.68314135 -1.3125 15.3125 C-1.45300781 16.56675781 -1.59351562 17.82101563 -1.73828125 19.11328125 C-1.82464844 20.06589844 -1.91101563 21.01851562 -2 22 C-2.33 22 -2.66 22 -3 22 C-3 17.05 -3 12.1 -3 7 C-3.66 7 -4.32 7 -5 7 C-5 5.68 -5 4.36 -5 3 C-3.35 3 -1.7 3 0 3 C0 2.01 0 1.02 0 0 Z " fill="#39586E" transform="translate(72,28)"/>
<path d="M0 0 C0.66 0 1.32 0 2 0 C2.33 0.99 2.66 1.98 3 3 C3.66 3.33 4.32 3.66 5 4 C3.88200014 5.33920838 2.75538103 6.67122556 1.625 8 C0.68527344 9.11375 0.68527344 9.11375 -0.2734375 10.25 C-0.84320313 10.8275 -1.41296875 11.405 -2 12 C-2.66 12 -3.32 12 -4 12 C-4.6875 9.1875 -4.6875 9.1875 -5 6 C-3.6875 4.3125 -3.6875 4.3125 -2 3 C-1.34 2.01 -0.68 1.02 0 0 Z " fill="#1B4766" transform="translate(197,29)"/>
<path d="M0 0 C3.96 0 7.92 0 12 0 C8.6442271 5.59295483 7.51385562 6.05030929 1.6875 7.625 C1.130625 7.74875 0.57375 7.8725 0 8 C0 5.36 0 2.72 0 0 Z " fill="#52738A" transform="translate(168,2)"/>
<path d="M0 0 C0 2.64 0 5.28 0 8 C-3.3 8 -6.6 8 -10 8 C-10 7.01 -10 6.02 -10 5 C-9.360625 4.87625 -8.72125 4.7525 -8.0625 4.625 C-7.381875 4.41875 -6.70125 4.2125 -6 4 C-5.67 3.34 -5.34 2.68 -5 2 C-1.44444444 0 -1.44444444 0 0 0 Z " fill="#FC821D" transform="translate(326,59)"/>
<path d="M0 0 C0 3.63 0 7.26 0 11 C-5.24882694 14.17692157 -10.01488629 14.65697965 -16 15 C-11.49667324 11.99778216 -7.42232421 10.68103975 -2 11 C-2.12375 9.72125 -2.2475 8.4425 -2.375 7.125 C-2.44460938 6.40570313 -2.51421875 5.68640625 -2.5859375 4.9453125 C-2.86374749 2.77331755 -2.86374749 2.77331755 -5 1 C-2 0 -2 0 0 0 Z " fill="#EA9D64" transform="translate(328,56)"/>
<path d="M0 0 C4.29 0 8.58 0 13 0 C12.67 0.66 12.34 1.32 12 2 C9.6859378 2.73075648 7.35171131 3.40138258 5 4 C5 5.32 5 6.64 5 8 C3.125 8.625 3.125 8.625 1 9 C0.34 8.34 -0.32 7.68 -1 7 C-0.625 4.375 -0.625 4.375 0 2 C0.99 2 1.98 2 3 2 C2.01 1.34 1.02 0.68 0 0 Z " fill="#133953" transform="translate(15,30)"/>
<path d="M0 0 C0.99 0.495 0.99 0.495 2 1 C2 3.31 2 5.62 2 8 C2.66 8 3.32 8 4 8 C4.22429687 8.60328125 4.44859375 9.2065625 4.6796875 9.828125 C6.40265113 12.66234919 8.13809517 13.37142854 11.125 14.75 C12.03507812 15.17796875 12.94515625 15.6059375 13.8828125 16.046875 C14.58148438 16.36140625 15.28015625 16.6759375 16 17 C12.74542527 18.10423071 11.08677159 17.99515499 8 16.5 C3.51327112 14.06410802 1.91923059 11.71810853 0 7 C-0.25 3.0625 -0.25 3.0625 0 0 Z " fill="#E79149" transform="translate(338,31)"/>
<path d="M0 0 C-1 3 -1 3 -2.67578125 4.203125 C-5.69295715 5.23758531 -8.02016783 5.04320005 -11.1875 4.75 C-12.78658203 4.61851563 -12.78658203 4.61851563 -14.41796875 4.484375 C-15.69607422 4.24460937 -15.69607422 4.24460937 -17 4 C-17.33 3.34 -17.66 2.68 -18 2 C-15.7505194 1.66317938 -13.50039296 1.33066999 -11.25 1 C-9.99703125 0.814375 -8.7440625 0.62875 -7.453125 0.4375 C-4 0 -4 0 0 0 Z " fill="#E27A2A" transform="translate(325,58)"/>
<path d="M0 0 C3 1 3 1 4.67578125 3.13671875 C6.27326622 6.59086766 6.30226669 9.02519934 6.1875 12.8125 C6.16042969 13.97394531 6.13335937 15.13539062 6.10546875 16.33203125 C6.07066406 17.21246094 6.03585938 18.09289062 6 19 C5.67 19 5.34 19 5 19 C4.34 15.7 3.68 12.4 3 9 C2.01 9.66 1.02 10.32 0 11 C0 10.01 0 9.02 0 8 C0.66 7.67 1.32 7.34 2 7 C1.34 6.01 0.68 5.02 0 4 C0 2.68 0 1.36 0 0 Z " fill="#3F5C75" transform="translate(45,38)"/>
<path d="M0 0 C0.66 0.66 1.32 1.32 2 2 C1.13117188 2.06058594 0.26234375 2.12117188 -0.6328125 2.18359375 C-1.78523438 2.26738281 -2.93765625 2.35117187 -4.125 2.4375 C-5.26195313 2.51871094 -6.39890625 2.59992187 -7.5703125 2.68359375 C-10.77062899 2.97883935 -13.86285823 3.29716853 -17 4 C-17.33 4.66 -17.66 5.32 -18 6 C-18.33 4.68 -18.66 3.36 -19 2 C-12.78852503 -0.25871817 -6.58088641 -0.6790596 0 0 Z " fill="#3A576C" transform="translate(88,18)"/>
<path d="M0 0 C1.67542976 0.28604898 3.34385343 0.61781233 5 1 C3.9280096 4.4541913 2.90283569 5.05218083 -0.375 6.8125 C-4.9901168 8.32434861 -4.9901168 8.32434861 -8 7 C-4.93882432 4.37613513 -4.26826873 4 0 4 C-0.33 3.01 -0.66 2.02 -1 1 C-0.67 0.67 -0.34 0.34 0 0 Z " fill="#3A596F" transform="translate(42,61)"/>
<path d="M0 0 C0.66 0 1.32 0 2 0 C2 0.66 2 1.32 2 2 C2.66 2 3.32 2 4 2 C4 2.66 4 3.32 4 4 C4.66 4 5.32 4 6 4 C6 4.99 6 5.98 6 7 C7.32 7.33 8.64 7.66 10 8 C10.33 10.64 10.66 13.28 11 16 C8.55763331 12.99401023 6.16703501 9.95007946 3.8125 6.875 C3.30332031 6.21242188 2.79414063 5.54984375 2.26953125 4.8671875 C1 3 1 3 0 0 Z " fill="#EB965D" transform="translate(242,38)"/>
<path d="M0 0 C5.30745923 1.48115141 9.33944852 3.31148808 12.3125 8.125 C13.33680609 12.40846182 13.15316861 16.61767583 13 21 C12.67 21 12.34 21 12 21 C11.34 16.38 10.68 11.76 10 7 C9.01 6.67 8.02 6.34 7 6 C7 5.34 7 4.68 7 4 C6.030625 3.71125 5.06125 3.4225 4.0625 3.125 C1 2 1 2 0 0 Z " fill="#E9955A" transform="translate(362,39)"/>
<path d="M0 0 C3.10302911 5.3107178 2.44557894 11.21513159 1.5 17.125 C1.335 17.74375 1.17 18.3625 1 19 C0.67 19 0.34 19 0 19 C-0.1968121 16.95920995 -0.38202831 14.91729993 -0.5625 12.875 C-0.66691406 11.73804688 -0.77132812 10.60109375 -0.87890625 9.4296875 C-0.99608016 6.11102007 -0.6655072 3.2437314 0 0 Z " fill="#4D6A7D" transform="translate(57,35)"/>
<path d="M0 0 C0.99 0 1.98 0 3 0 C2.67 4.29 2.34 8.58 2 13 C1.34 12.67 0.68 12.34 0 12 C0 11.34 0 10.68 0 10 C-0.66 10 -1.32 10 -2 10 C-1.34 6.7 -0.68 3.4 0 0 Z " fill="#F5832E" transform="translate(257,48)"/>
<path d="M0 0 C6.34507042 0.59859155 6.34507042 0.59859155 8.9375 2.1875 C10.47273259 4.80642619 10.1980568 7.02914805 10 10 C8.02 10.33 6.04 10.66 4 11 C4.7115625 10.38125 4.7115625 10.38125 5.4375 9.75 C7.16266518 7.817815 7.56584875 6.51807725 8 4 C7.34 4 6.68 4 6 4 C6 3.34 6 2.68 6 2 C3.03 1.505 3.03 1.505 0 1 C0 0.67 0 0.34 0 0 Z " fill="#E98B4B" transform="translate(354,49)"/>
<path d="M0 0 C4.62 0 9.24 0 14 0 C13.67 1.98 13.34 3.96 13 6 C12.34 4.68 11.68 3.36 11 2 C8.03 2 5.06 2 2 2 C1.67 5.3 1.34 8.6 1 12 C0.67 12 0.34 12 0 12 C0 8.04 0 4.08 0 0 Z " fill="#E79156" transform="translate(387,7)"/>
<path d="M0 0 C2.53229508 2.53229508 2.42944077 3.85827668 2.75 7.375 C2.84796875 8.33148438 2.9459375 9.28796875 3.046875 10.2734375 C3 13 3 13 1 17 C1 13.7 1 10.4 1 7 C0.34 7 -0.32 7 -1 7 C-1.04254356 5.00045254 -1.04080783 2.99958364 -1 1 C-0.67 0.67 -0.34 0.34 0 0 Z " fill="#3C5869" transform="translate(161,33)"/>
<path d="M0 0 C1.65 0 3.3 0 5 0 C3.68 0.33 2.36 0.66 1 1 C1.50980331 4.77254453 2.20700182 6.44987123 5 9 C5 9.66 5 10.32 5 11 C3.35 11 1.7 11 0 11 C-0.84098656 6.98195309 -1.05404945 3.98196457 0 0 Z " fill="#EB893F" transform="translate(381,20)"/>
<path d="M0 0 C0.99 0 1.98 0 3 0 C5.1875 3 5.1875 3 7 6 C6.401875 6.12375 5.80375 6.2475 5.1875 6.375 C2.73768652 6.95475985 2.73768652 6.95475985 0 9 C0 6.03 0 3.06 0 0 Z " fill="#2F5975" transform="translate(124,52)"/>
<path d="M0 0 C2 3.75 2 3.75 2 6 C-0.64 6.66 -3.28 7.32 -6 8 C-4.73058503 4.08597051 -3.48832306 2.20927127 0 0 Z " fill="#254661" transform="translate(68,21)"/>
<path d="M0 0 C0.33 0.99 0.66 1.98 1 3 C1.66 3.33 2.32 3.66 3 4 C3 4.99 3 5.98 3 7 C3.99 7.33 4.98 7.66 6 8 C5.01 8.33 4.02 8.66 3 9 C-0.1875 7.0625 -0.1875 7.0625 -3 5 C-2.625 3.0625 -2.625 3.0625 -2 1 C-1.34 0.67 -0.68 0.34 0 0 Z " fill="#315067" transform="translate(67,60)"/>
<path d="M0 0 C0 0.99 0 1.98 0 3 C-2 5 -2 5 -4 6 C-5.67654729 5.72057545 -7.34608154 5.39171753 -9 5 C-7.93411431 2.09303901 -7.29651501 1.15567038 -4.5 -0.3125 C-2 -1 -2 -1 0 0 Z " fill="#2E5775" transform="translate(89,24)"/>
<path d="M0 0 C4.62 0 9.24 0 14 0 C12.38262276 3.23475448 11.52370777 4.70572021 9 7 C8.34 6.67 7.68 6.34 7 6 C9 3 9 3 10 2 C6.7 1.67 3.4 1.34 0 1 C0 0.67 0 0.34 0 0 Z " fill="#243E52" transform="translate(199,20)"/>
<path d="M0 0 C2 2 2 2 2.1875 5.0625 C2 8 2 8 1 9 C-1.01964199 9.07244053 -3.04167124 9.08377188 -5.0625 9.0625 C-6.71958984 9.04896484 -6.71958984 9.04896484 -8.41015625 9.03515625 C-9.26480469 9.02355469 -10.11945313 9.01195313 -11 9 C-11.33 8.34 -11.66 7.68 -12 7 C-8.04 7 -4.08 7 0 7 C0 4.69 0 2.38 0 0 Z " fill="#E39E6E" transform="translate(275,61)"/>
<path d="M0 0 C0.33 0.66 0.66 1.32 1 2 C0.67 2.66 0.34 3.32 0 4 C1.32 4.33 2.64 4.66 4 5 C4.33 6.98 4.66 8.96 5 11 C1.25018012 9.75006004 0.13381449 8.2769294 -2 5 C-1.81190541 2.74286486 -1.60454441 1.60454441 0 0 Z " fill="#1F3F56" transform="translate(187,47)"/>
<path d="M0 0 C4.29926263 1.59231949 6.35005733 4.39313359 9 8 C9 8.99 9 9.98 9 11 C8.34 11 7.68 11 7 11 C6.34 9.02 5.68 7.04 5 5 C3.35 4.67 1.7 4.34 0 4 C0 2.68 0 1.36 0 0 Z " fill="#3F5D71" transform="translate(40,4)"/>
<path d="M0 0 C5 1 5 1 7 3 C6.01 3.495 6.01 3.495 5 4 C4.01 3.67 3.02 3.34 2 3 C2 5.97 2 8.94 2 12 C1.34 12 0.68 12 0 12 C0 8.04 0 4.08 0 0 Z " fill="#DF8F53" transform="translate(338,56)"/>
<path d="M0 0 C1.1446875 1.175625 1.1446875 1.175625 2.3125 2.375 C4.90891805 5.07257717 4.90891805 5.07257717 8 7 C4.29706315 7.33663062 2.60465619 7.47736015 -0.375 5.125 C-2 3 -2 3 -2 1 C-1.34 0.67 -0.68 0.34 0 0 Z " fill="#335168" transform="translate(71,53)"/>
<path d="M0 0 C0.66 0 1.32 0 2 0 C1.67 1.32 1.34 2.64 1 4 C0.34 4 -0.32 4 -1 4 C-0.67 4.99 -0.34 5.98 0 7 C-0.99 7.66 -1.98 8.32 -3 9 C-3.99 8.34 -4.98 7.68 -6 7 C-5.04882866 5.8274869 -4.08882991 4.66212985 -3.125 3.5 C-2.59132812 2.8503125 -2.05765625 2.200625 -1.5078125 1.53125 C-0.76144531 0.77328125 -0.76144531 0.77328125 0 0 Z " fill="#214159" transform="translate(196,21)"/>
<path d="M0 0 C0.66 0.33 1.32 0.66 2 1 C1.67 1.66 1.34 2.32 1 3 C1.99 3.33 2.98 3.66 4 4 C-0.75 7 -0.75 7 -3 7 C-2.25 2.25 -2.25 2.25 0 0 Z " fill="#31546C" transform="translate(151,62)"/>
<path d="M0 0 C0.556875 0.928125 0.556875 0.928125 1.125 1.875 C3.48622906 4.5510596 5.60131652 5.0936844 9 6 C9 6.33 9 6.66 9 7 C6.36 7 3.72 7 1 7 C1 6.34 1 5.68 1 5 C0.01 5 -0.98 5 -2 5 C-1.34 3.35 -0.68 1.7 0 0 Z " fill="#EC8E4A" transform="translate(351,32)"/>
<path d="M0 0 C3.26008643 3.16952847 6.22237877 6.39937989 9 10 C8.67 10.66 8.34 11.32 8 12 C5.02877247 10.7954483 3.34472323 9.75946836 2 6.796875 C1.26325402 4.54413248 0.59175308 2.29484731 0 0 Z " fill="#E6803D" transform="translate(239,14)"/>
<path d="M0 0 C2.475 0.495 2.475 0.495 5 1 C5 2.32 5 3.64 5 5 C5.66 5 6.32 5 7 5 C6.67 6.32 6.34 7.64 6 9 C3 5.25 3 5.25 3 3 C2.34 3 1.68 3 1 3 C0.67 2.01 0.34 1.02 0 0 Z " fill="#38566A" transform="translate(191,58)"/>
<path d="M0 0 C2 1 2 1 2 1 Z M-2 1 C-1.34 1.33 -0.68 1.66 0 2 C0.625 4.5625 0.625 4.5625 1 7 C-1.475 6.01 -1.475 6.01 -4 5 C-4 4.01 -4 3.02 -4 2 C-3.34 1.67 -2.68 1.34 -2 1 Z " fill="#3D5C72" transform="translate(126,62)"/>
<path d="M0 0 C2.4375 0.6875 2.4375 0.6875 5 2 C5.8125 4.625 5.8125 4.625 6 7 C0.125 4.25 0.125 4.25 -1 2 C-0.67 1.34 -0.34 0.68 0 0 Z " fill="#275576" transform="translate(188,36)"/>
<path d="M0 0 C0.66 0.33 1.32 0.66 2 1 C0.8125 3.4375 0.8125 3.4375 -1 6 C-3.6875 6.8125 -3.6875 6.8125 -6 7 C-4.19587357 3.73539027 -3.16605307 2.11070205 0 0 Z " fill="#EE8E48" transform="translate(295,21)"/>
<path d="M0 0 C-0.33 0.99 -0.66 1.98 -1 3 C-1.66 3 -2.32 3 -3 3 C-3.33 4.32 -3.66 5.64 -4 7 C-5.32 6.67 -6.64 6.34 -8 6 C-3.375 0 -3.375 0 0 0 Z " fill="#134262" transform="translate(94,23)"/>
<path d="M0 0 C2.64 0.33 5.28 0.66 8 1 C7.01 2.485 7.01 2.485 6 4 C3.03 3.67 0.06 3.34 -3 3 C-2.01 2.67 -1.02 2.34 0 2 C0 1.34 0 0.68 0 0 Z " fill="#536F86" transform="translate(75,67)"/>
<path d="M0 0 C-0.33 0.99 -0.66 1.98 -1 3 C-4.0625 4.1875 -4.0625 4.1875 -7 5 C-7.33 3.68 -7.66 2.36 -8 1 C-5.10765685 0.17361624 -3.11257569 0 0 0 Z " fill="#F18839" transform="translate(325,58)"/>
<path d="M0 0 C0.33 0 0.66 0 1 0 C1.2506019 1.41303238 1.47461921 2.83079474 1.6875 4.25 C1.81511719 5.03890625 1.94273438 5.8278125 2.07421875 6.640625 C2 9 2 9 -1 13 C-0.67 8.71 -0.34 4.42 0 0 Z " fill="#2B4961" transform="translate(105,46)"/>
<path d="M0 0 C0.66 0 1.32 0 2 0 C3.32 2.64 4.64 5.28 6 8 C5.01 8.33 4.02 8.66 3 9 C0 3.375 0 3.375 0 0 Z " fill="#EA9656" transform="translate(252,31)"/>
<path d="M0 0 C1.98 0 3.96 0 6 0 C6.103125 0.639375 6.20625 1.27875 6.3125 1.9375 C6.539375 2.618125 6.76625 3.29875 7 4 C7.99 4.33 8.98 4.66 10 5 C6.05140217 4.4359146 3.29120954 3.2568294 0 1 C0 0.67 0 0.34 0 0 Z " fill="#EEA163" transform="translate(292,65)"/>
<path d="M0 0 C0.66 0.33 1.32 0.66 2 1 C1.67 2.65 1.34 4.3 1 6 C-0.65 6.33 -2.3 6.66 -4 7 C-4 4 -4 4 -2 1.8125 C-1.34 1.214375 -0.68 0.61625 0 0 Z " fill="#134263" transform="translate(131,62)"/>
<path d="M0 0 C1.9375 0.75 1.9375 0.75 4 2 C4.75 4.125 4.75 4.125 5 6 C3.35 5.67 1.7 5.34 0 5 C0 3.35 0 1.7 0 0 Z " fill="#1E445F" transform="translate(190,41)"/>
<path d="M0 0 C1.32 0.33 2.64 0.66 4 1 C4.33 3.64 4.66 6.28 5 9 C0.57142857 3.85714286 0.57142857 3.85714286 0 0 Z " fill="#EC8E41" transform="translate(248,45)"/>
<path d="M0 0 C0.33 0 0.66 0 1 0 C1 1.65 1 3.3 1 5 C-1.35438733 6.42944945 -2.48032433 7.08661261 -5.25 6.625 C-5.8275 6.41875 -6.405 6.2125 -7 6 C-6.030625 5.38125 -5.06125 4.7625 -4.0625 4.125 C-0.97164638 2.34321154 -0.97164638 2.34321154 0 0 Z " fill="#395369" transform="translate(35,24)"/>
<path d="M0 0 C1.98 0 3.96 0 6 0 C2.79663178 2.83374881 0.21912747 3.5205537 -4 4 C-3.67 3.34 -3.34 2.68 -3 2 C-2.01 2 -1.02 2 0 2 C0 1.34 0 0.68 0 0 Z " fill="#ED8F4F" transform="translate(362,67)"/>
<path d="M0 0 C0.66 0.99 1.32 1.98 2 3 C1.67 3.66 1.34 4.32 1 5 C1.66 5.33 2.32 5.66 3 6 C3 6.66 3 7.32 3 8 C1.68 7.67 0.36 7.34 -1 7 C-0.67 5.68 -0.34 4.36 0 3 C-0.66 3 -1.32 3 -2 3 C-2 2.34 -2 1.68 -2 1 C-1.34 0.67 -0.68 0.34 0 0 Z " fill="#2C5371" transform="translate(88,58)"/>
<path d="M0 0 C0.66 0.33 1.32 0.66 2 1 C2 3.31 2 5.62 2 8 C1.01 8.495 1.01 8.495 0 9 C-2.125 8.0625 -2.125 8.0625 -4 7 C-2.68 7 -1.36 7 0 7 C0 4.69 0 2.38 0 0 Z " fill="#E59C5C" transform="translate(329,40)"/>
<path d="M0 0 C0.66 0.33 1.32 0.66 2 1 C1.67 5.62 1.34 10.24 1 15 C0.67 15 0.34 15 0 15 C-0.19390729 12.68802845 -0.37996367 10.3753971 -0.5625 8.0625 C-0.71912109 6.13083984 -0.71912109 6.13083984 -0.87890625 4.16015625 C-0.91886719 3.11730469 -0.95882812 2.07445312 -1 1 C-0.67 0.67 -0.34 0.34 0 0 Z " fill="#1E435E" transform="translate(68,34)"/>
<path d="M0 0 C1.67542976 0.28604898 3.34385343 0.61781233 5 1 C3.68 2.32 2.36 3.64 1 5 C0.34 3.68 -0.32 2.36 -1 1 C-0.67 0.67 -0.34 0.34 0 0 Z " fill="#436177" transform="translate(127,29)"/>
<path d="M0 0 C1.37478516 0.01740234 1.37478516 0.01740234 2.77734375 0.03515625 C3.69644531 0.04417969 4.61554688 0.05320312 5.5625 0.0625 C6.27277344 0.07410156 6.98304688 0.08570312 7.71484375 0.09765625 C8.04484375 1.08765625 8.37484375 2.07765625 8.71484375 3.09765625 C7.08941295 2.95670561 5.46450324 2.80973538 3.83984375 2.66015625 C2.93492187 2.57894531 2.03 2.49773438 1.09765625 2.4140625 C-1.28515625 2.09765625 -1.28515625 2.09765625 -3.28515625 1.09765625 C-2.28515625 0.09765625 -2.28515625 0.09765625 0 0 Z " fill="#587183" transform="translate(136.28515625,27.90234375)"/>
<path d="M0 0 C1.32 0.66 2.64 1.32 4 2 C3.01 3.485 3.01 3.485 2 5 C1.01 5 0.02 5 -1 5 C-0.67 3.35 -0.34 1.7 0 0 Z " fill="#37556A" transform="translate(35,54)"/>
<path d="M0 0 C0.45375 0.495 0.9075 0.99 1.375 1.5 C2.87635519 3.22609337 2.87635519 3.22609337 5 3 C5 3.66 5 4.32 5 5 C4.01 5.33 3.02 5.66 2 6 C1.01 5.34 0.02 4.68 -1 4 C-0.67 2.68 -0.34 1.36 0 0 Z " fill="#2B4F6B" transform="translate(149,51)"/>
<path d="M0 0 C-1.28062485 1.7074998 -2.61767557 3.37373596 -4 5 C-4.66 5 -5.32 5 -6 5 C-6 3.35 -6 1.7 -6 0 C-2.25 -1.125 -2.25 -1.125 0 0 Z " fill="#15344A" transform="translate(202,33)"/>
<path d="M0 0 C1.32 0.33 2.64 0.66 4 1 C4.33 2.98 4.66 4.96 5 7 C3.29115995 5.37660195 1.62553283 3.70680947 0 2 C0 1.34 0 0.68 0 0 Z " fill="#E98032" transform="translate(233,25)"/>
<path d="M0 0 C1.98 0.66 3.96 1.32 6 2 C5.01 2.99 4.02 3.98 3 5 C1.35 4.01 -0.3 3.02 -2 2 C-1.34 1.34 -0.68 0.68 0 0 Z " fill="#2C5371" transform="translate(128,19)"/>
</svg>
